<svg xmlns="http://www.w3.org/2000/svg" viewBox="0 0 38 24" width="38" height="24" role="img" aria-labelledby="pi-visa"><title id="pi-visa">Visa</title><path d="M35,0 L3,0 C1.3,0 0,1.3 0,3 L0,21 C0,22.7 1.4,24 3,24 L35,24 C36.7,24 38,22.7 38,21 L38,3 C38,1.3 36.6,0 35,0 Z" fill="#192061"/><path d="M28.1,17.4 L28.1,17.4 L28.1,17.4 L28.1,17.4 L28.1,17.4 L31.1,6.6 L27.7,6.6 L24.7,15.2 L22.9,9.4 L25.5,6.6 L22,6.6 L18.4,17.4 L22.1,17.4 L23.7,11.9 L26.4,17.4 L28.1,17.4 Z M16,17.4 L12.6,6.6 L9.2,6.6 L6,17.4 L9.6,17.4 L10.6,14.6 L14.6,14.6 L15.1,17.4 L16,17.4 L16,17.4 Z M13.8,12.2 C13.6,11.6 13.5,11.2 13.5,11.2 C13.5,11.2 13.4,11.6 13.2,12.2 L12.1,12.2 L11.1,12.2 L12.9,8.5 L12.9,8.5 L14.1,12.2 L13.8,12.2 L13.8,12.2 Z" fill="#FFF"/></svg>
